<?xml version="1.0" encoding="UTF-8"?>
<svg id="Layer_1" data-name="Layer 1" xmlns="http://www.w3.org/2000/svg" viewBox="0 0 900 900">
  <defs>
    <style>
      .cls-1 {
        fill: #fff;
        stroke-width: 0px;
      }
    </style>
  </defs>
  <path class="cls-1" d="M642.19,72l-70.6,110.87c-92.36-24.63-240.17,0-240.17,0l-67.77-110.87c-94.69,58.29-129.07,163.95-141.39,240.53,5.98,1.71,11.91,3.37,17.8,5.03,27.95,7.95,55.91,15.95,83.82,23.95,68.9,19.73,140.13,40.13,210.42,59.64,3.69,1.03,8.4,1.57,13.66,1.57s11.33-.63,16.54-1.71c40.09-8.22,72.09-15.95,100.72-24.27,39.73-11.51,79.86-23.91,118.69-35.91,21.26-6.56,42.52-13.12,63.86-19.59,11.5-3.51,23.24-6.92,34.61-10.16-27.46-171.09-140.17-239.09-140.17-239.09ZM297.53,336.84c-14.97,0-27.1-15.19-27.1-33.89s12.13-33.89,27.1-33.89,27.1,15.19,27.1,33.89-12.13,33.89-27.1,33.89ZM476.63,311.41l-18.88,28.4c-2.92,4.45-9.44,4.45-12.36,0l-18.88-28.4c-3.28-4.94.27-11.55,6.2-11.55h37.71c5.93,0,9.44,6.61,6.2,11.55ZM605.48,336.84c-14.97,0-27.1-15.19-27.1-33.89s12.13-33.89,27.1-33.89,27.1,15.19,27.1,33.89-12.13,33.89-27.1,33.89Z"/>
  <path class="cls-1" d="M379.82,404.57c7.91,2.25,15.82,4.45,23.77,6.65v422.64c-111.41-31.55-222.6-63.59-334.01-95.1-14.74-4.18-18.38-10.83-18.38-21.89.36-129.52.22-259,.31-388.52,0-4.31,1.17-8.67,2.2-16,23.77,6.56,45.17,12.31,65.98,18.16,5.17,1.44,10.34,2.88,15.46,4.36,81.52,23.23,162.96,46.78,244.66,69.71Z"/>
  <path class="cls-1" d="M480,416.17v422.77c-5.48,1.53-11.01,3.01-16.54,4.45-7.86,2.02-18.29,2.25-25.93.09-8.31-2.34-16.63-4.72-24.94-7.06v-422.68c5.62,1.57,11.24,3.15,16.9,4.72,11.5,3.19,26.56,2.7,38.65.18,3.96-.81,7.91-1.66,11.87-2.47Z"/>
  <path class="cls-1" d="M848.79,720.65c.09,14.7-13.35,16.81-24.81,20.13-92.81,26.7-185.97,52.81-278.96,79.19-18.74,5.3-37.3,11.01-56.04,16.4v-422.14c13.98-3.06,27.91-6.25,41.71-9.66,13.3-3.28,26.47-6.79,39.5-10.56,42.52-12.31,84.67-25.39,126.78-38.38v298.37l42.29-71.91,26.97,31.46v-279.05c6.2-1.84,12.45-3.64,18.7-5.44,13.35-3.82,26.74-7.64,40-11.64,15.05-4.49,23.73-4.04,23.68,11.33-.45,130.65-.58,261.29.18,391.89Z"/>
</svg>