<?xml version="1.0" encoding="UTF-8"?>
<svg id="Layer_1" data-name="Layer 1" xmlns="http://www.w3.org/2000/svg" viewBox="0 0 900 900">
  <defs>
    <style>
      .cls-1 {
        fill: #1b3598;
      }

      .cls-1, .cls-2 {
        stroke-width: 0px;
      }

      .cls-2 {
        fill: #fff;
      }
    </style>
  </defs>
  <rect class="cls-1" width="900" height="900" rx="110.39" ry="110.39"/>
  <g>
    <path class="cls-2" d="M607.39,142l-57.82,90.79c-75.63-20.17-196.67,0-196.67,0l-55.5-90.79c-77.54,47.73-105.7,134.26-115.78,196.97,4.9,1.4,9.75,2.76,14.57,4.12,22.89,6.51,45.78,13.06,68.64,19.62,56.42,16.16,114.75,32.86,172.31,48.84,3.02.85,6.88,1.29,11.19,1.29s9.27-.52,13.54-1.4c32.83-6.73,59.03-13.07,82.47-19.87,32.53-9.42,65.4-19.58,97.2-29.41,17.41-5.37,34.82-10.75,52.3-16.05,9.42-2.87,19.03-5.67,28.34-8.32-22.49-140.11-114.79-195.79-114.79-195.79ZM325.15,358.88c-12.26,0-22.19-12.44-22.19-27.75s9.94-27.75,22.19-27.75,22.19,12.44,22.19,27.75-9.94,27.75-22.19,27.75ZM471.81,338.05l-15.46,23.26c-2.39,3.64-7.73,3.64-10.12,0l-15.46-23.26c-2.69-4.05.22-9.46,5.08-9.46h30.88c4.86,0,7.73,5.41,5.08,9.46ZM577.32,358.88c-12.26,0-22.19-12.44-22.19-27.75s9.94-27.75,22.19-27.75,22.19,12.44,22.19,27.75-9.94,27.75-22.19,27.75Z"/>
    <path class="cls-2" d="M392.53,414.34c6.48,1.84,12.95,3.64,19.47,5.45v346.09c-91.23-25.84-182.28-52.08-273.52-77.87-12.07-3.42-15.05-8.87-15.05-17.92.29-106.06.18-212.09.26-318.16,0-3.53.96-7.1,1.8-13.1,19.47,5.37,36.99,10.08,54.03,14.87,4.23,1.18,8.46,2.36,12.66,3.57,66.76,19.03,133.45,38.31,200.35,57.08Z"/>
    <path class="cls-2" d="M474.57,423.83v346.2c-4.49,1.25-9.02,2.47-13.54,3.64-6.44,1.66-14.98,1.84-21.24.07-6.81-1.91-13.62-3.86-20.43-5.78v-346.13c4.6,1.29,9.2,2.58,13.84,3.86,9.42,2.61,21.75,2.21,31.65.15,3.24-.66,6.48-1.36,9.72-2.02Z"/>
    <path class="cls-2" d="M776.57,673.17c.07,12.03-10.93,13.76-20.32,16.49-76,21.86-152.29,43.24-228.43,64.85-15.35,4.34-30.55,9.02-45.89,13.43v-345.69c11.45-2.5,22.85-5.12,34.15-7.91,10.89-2.69,21.68-5.56,32.35-8.65,34.82-10.08,69.34-20.79,103.82-31.43v244.33l34.63-58.88,22.08,25.76v-228.51c5.08-1.51,10.19-2.98,15.31-4.45,10.93-3.13,21.9-6.26,32.75-9.53,12.33-3.68,19.43-3.31,19.39,9.27-.37,106.98-.48,213.97.15,320.92Z"/>
  </g>
</svg>